<?xml version="1.0" standalone="no"?><!DOCTYPE svg PUBLIC "-//W3C//DTD SVG 1.1//EN" "http://www.w3.org/Graphics/SVG/1.1/DTD/svg11.dtd"><svg t="1566799067059" class="icon" viewBox="0 0 1024 1024" version="1.1" xmlns="http://www.w3.org/2000/svg" p-id="4795" xmlns:xlink="http://www.w3.org/1999/xlink" width="25" height="25"><defs><style type="text/css"></style></defs><path d="M512 1024C230.4 1024 0 793.6 0 512S230.4 0 512 0s512 230.4 512 512-230.4 512-512 512z m0-921.6c-225.28 0-409.6 184.32-409.6 409.6s184.32 409.6 409.6 409.6 409.6-184.32 409.6-409.6-184.32-409.6-409.6-409.6z" fill="#1F2A40" p-id="4796"></path><path d="M532.48 256c46.08 0 87.04 10.24 112.64 35.84 30.72 25.6 40.96 61.44 40.96 102.4 0 35.84-10.24 66.56-25.6 87.04-5.12 10.24-30.72 25.6-61.44 56.32-10.24 10.24-20.48 20.48-30.72 35.84-5.12 15.36-10.24 30.72-10.24 46.08v10.24H476.16v-10.24c0-30.72 5.12-51.2 15.36-71.68 10.24-20.48 35.84-51.2 81.92-92.16l10.24-10.24c15.36-15.36 20.48-30.72 20.48-51.2s-5.12-40.96-20.48-56.32c-15.36-15.36-30.72-20.48-56.32-20.48-30.72 0-56.32 10.24-66.56 30.72-15.36 25.6-20.48 46.08-20.48 76.8H358.4c0-51.2 15.36-97.28 46.08-122.88 30.72-30.72 71.68-46.08 128-46.08z m-15.36 414.72c15.36 0 30.72 5.12 40.96 15.36 10.24 10.24 15.36 25.6 15.36 40.96 0 15.36-5.12 30.72-15.36 40.96-10.24 10.24-25.6 15.36-40.96 15.36-15.36 0-25.6-5.12-40.96-15.36-10.24-15.36-15.36-30.72-15.36-46.08s5.12-30.72 15.36-40.96c15.36-5.12 25.6-10.24 40.96-10.24z" fill="#1F2A40" p-id="4797"></path></svg>