<?xml version="1.0" standalone="no"?><!DOCTYPE svg PUBLIC "-//W3C//DTD SVG 1.1//EN" "http://www.w3.org/Graphics/SVG/1.1/DTD/svg11.dtd"><svg t="1566798552057" class="icon" viewBox="0 0 1024 1024" version="1.1" xmlns="http://www.w3.org/2000/svg" p-id="3360" width="25" height="25" xmlns:xlink="http://www.w3.org/1999/xlink"><defs><style type="text/css"></style></defs><path d="M512 85.333333L341.333333 298.666667h128v341.333333h85.333334V298.666667h128zM298.666667 235.989333A383.573333 383.573333 0 0 0 128 554.666667c0 211.626667 172.373333 384 384 384s384-172.373333 384-384a383.573333 383.573333 0 0 0-170.666667-318.677334v110.677334A297.088 297.088 0 0 1 810.666667 554.666667c0 164.693333-133.973333 298.666667-298.666667 298.666666s-298.666667-133.973333-298.666667-298.666666c0-80.981333 32.853333-154.154667 85.333334-208z" fill="#1F2A40" p-id="3361"></path></svg>