<?xml version="1.0" standalone="no"?><!DOCTYPE svg PUBLIC "-//W3C//DTD SVG 1.1//EN" "http://www.w3.org/Graphics/SVG/1.1/DTD/svg11.dtd"><svg t="1566810861194" class="icon" viewBox="0 0 1024 1024" version="1.1" xmlns="http://www.w3.org/2000/svg" p-id="7713" xmlns:xlink="http://www.w3.org/1999/xlink" width="25" height="25"><defs><style type="text/css"></style></defs><path d="M649.6 681.6c-89.6 0-172.8-35.2-236.8-99.2s-99.2-147.2-99.2-236.8 35.2-172.8 99.2-236.8S560 9.6 649.6 9.6c89.6 0 172.8 35.2 236.8 99.2s99.2 147.2 99.2 236.8c0 89.6-35.2 172.8-99.2 236.8-60.8 64-147.2 99.2-236.8 99.2z m0-608c-70.4 0-140.8 28.8-192 80-51.2 51.2-80 118.4-80 192s28.8 140.8 80 192 118.4 80 192 80c70.4 0 140.8-28.8 192-80 51.2-51.2 80-118.4 80-192s-28.8-140.8-80-192c-51.2-51.2-118.4-80-192-80z" p-id="7714" fill="#DBC059"></path><path d="M70.4 960c-9.6 0-16-3.2-22.4-9.6-12.8-12.8-12.8-35.2 0-48l348.8-348.8c12.8-12.8 35.2-12.8 48 0 12.8 12.8 12.8 35.2 0 48L96 950.4c-6.4 6.4-16 9.6-25.6 9.6z" p-id="7715" fill="#DBC059"></path><path d="M416 828.8c-9.6 0-16-3.2-22.4-9.6L288 710.4c-12.8-12.8-12.8-35.2 0-48 12.8-12.8 35.2-12.8 48 0l108.8 108.8c12.8 12.8 12.8 35.2 0 48-9.6 6.4-19.2 9.6-28.8 9.6z m-80 188.8c-9.6 0-16-3.2-22.4-9.6l-160-160c-12.8-12.8-12.8-35.2 0-48 12.8-12.8 35.2-12.8 48 0l160 160c12.8 12.8 12.8 35.2 0 48-6.4 6.4-16 9.6-25.6 9.6z" p-id="7716" fill="#DBC059"></path></svg>