<?xml version="1.0" standalone="no"?><!DOCTYPE svg PUBLIC "-//W3C//DTD SVG 1.1//EN" "http://www.w3.org/Graphics/SVG/1.1/DTD/svg11.dtd"><svg t="1566810103260" class="icon" viewBox="0 0 1450 1024" version="1.1" xmlns="http://www.w3.org/2000/svg" p-id="6843" xmlns:xlink="http://www.w3.org/1999/xlink" width="35.400390625" height="25"><defs><style type="text/css"></style></defs><path d="M65.92 0C30.293 0 0 30.805 0 67.157v872.918c0 36.309 30.293 67.157 65.92 67.157h1318.827c35.669 0 65.92-30.848 65.92-67.157V67.115c0-36.224-30.294-67.115-65.92-67.115H65.92z m108.715 100.693h1101.397L725.333 619.52 174.635 100.693zM98.9 166.357l340.566 320.47-340.48 346.752V166.272z m1252.864 0v667.264L1011.2 486.827l340.48-320.512z m-839.68 389.206L691.84 725.035a48.81 48.81 0 0 0 66.987 0l179.797-169.472 344.619 350.976H167.424l344.619-350.976z" p-id="6844" fill="#DBC059"></path></svg>